<svg width="78" height="156" viewBox="0 0 78 156" fill="none" xmlns="http://www.w3.org/2000/svg">
<g clip-path="url(#clip0_864_11288)">
<path d="M16 1.5H62C70.0081 1.5 76.5 7.99187 76.5 16V140C76.5 148.008 70.0081 154.5 62 154.5H16C7.99187 154.5 1.5 148.008 1.5 140V16C1.5 7.99187 7.99187 1.5 16 1.5Z" fill="white" stroke="#848484" stroke-width="3"/>
<rect x="29.4102" y="5.24365" width="19.1803" height="6.55462" rx="3.27731" fill="white"/>
<path d="M8.95117 21.042C8.95117 18.8329 10.742 17.042 12.9512 17.042H65.0495C67.2587 17.042 69.0495 18.8329 69.0495 21.042V32.7059C69.0495 34.915 67.2587 36.7059 65.0495 36.7059H12.9512C10.742 36.7059 8.95117 34.915 8.95117 32.7059V21.042Z" fill="#E4E4E4"/>
<path d="M27 9C27 7.34315 28.3431 6 30 6H48C49.6569 6 51 7.34315 51 9C51 10.6569 49.6569 12 48 12H30C28.3431 12 27 10.6569 27 9Z" fill="#848484"/>
<path d="M23 150C23 149.448 23.4477 149 24 149H54C54.5523 149 55 149.448 55 150C55 150.552 54.5523 151 54 151H24C23.4477 151 23 150.552 23 150Z" fill="#848484"/>
<path d="M8.95117 89.2101C8.95117 87.0009 10.742 85.2101 12.9512 85.2101H65.0495C67.2587 85.2101 69.0495 87.0009 69.0495 89.2101V100.874C69.0495 103.083 67.2587 104.874 65.0495 104.874H12.9512C10.742 104.874 8.95117 103.083 8.95117 100.874V89.2101Z" fill="#E4E4E4"/>
<path d="M33.082 39.3276C35.2912 39.3276 37.082 41.1185 37.082 43.3276L37.082 78.5881C37.082 80.7973 35.2912 82.5881 33.082 82.5881L12.9509 82.5881C10.7417 82.5881 8.95088 80.7973 8.95088 78.5881L8.95089 43.3276C8.95089 41.1185 10.7417 39.3276 12.9509 39.3276L33.082 39.3276Z" fill="#E4E4E4"/>
<path d="M65.0488 39.3276C67.258 39.3276 69.0488 41.1185 69.0488 43.3276L69.0488 54.9915C69.0488 57.2006 67.258 58.9915 65.0488 58.9915L44.9177 58.9915C42.7085 58.9915 40.9177 57.2006 40.9177 54.9915L40.9177 43.3276C40.9177 41.1185 42.7085 39.3276 44.9177 39.3276L65.0488 39.3276Z" fill="#E4E4E4"/>
<path d="M65.0488 61.6135C67.258 61.6135 69.0488 63.4044 69.0488 65.6135L69.0488 78.5883C69.0488 80.7975 67.258 82.5883 65.0488 82.5883L44.9177 82.5883C42.7085 82.5883 40.9177 80.7975 40.9177 78.5883L40.9177 65.6135C40.9177 63.4044 42.7085 61.6135 44.9177 61.6135L65.0488 61.6135Z" fill="#E4E4E4"/>
<path d="M33.082 107.496C35.2912 107.496 37.082 109.287 37.082 111.496L37.082 123.16C37.082 125.369 35.2912 127.16 33.082 127.16L12.9509 127.16C10.7417 127.16 8.95088 125.369 8.95088 123.16L8.95088 111.496C8.95088 109.287 10.7417 107.496 12.9509 107.496L33.082 107.496Z" fill="#E4E4E4"/>
<path d="M65.0488 107.496C67.258 107.496 69.0488 109.287 69.0488 111.496L69.0488 123.16C69.0488 125.369 67.258 127.16 65.0488 127.16L44.9177 127.16C42.7085 127.16 40.9177 125.369 40.9177 123.16L40.9177 111.496C40.9177 109.287 42.7085 107.496 44.9177 107.496L65.0488 107.496Z" fill="#E4E4E4"/>
</g>
<defs>
<clipPath id="clip0_864_11288">
<rect width="78" height="156" fill="white"/>
</clipPath>
</defs>
</svg>
