<svg width="78" height="156" viewBox="0 0 78 156" fill="none" xmlns="http://www.w3.org/2000/svg">
<g clip-path="url(#clip0_864_11294)">
<path d="M16 1.5H62C70.0081 1.5 76.5 7.99187 76.5 16V140C76.5 148.008 70.0081 154.5 62 154.5H16C7.99187 154.5 1.5 148.008 1.5 140V16C1.5 7.99187 7.99187 1.5 16 1.5Z" fill="white" stroke="#848484" stroke-width="3"/>
<rect x="29.4102" y="5.24365" width="19.1803" height="6.55462" rx="3.27731" fill="white"/>
<path d="M27 9C27 7.34315 28.3431 6 30 6H48C49.6569 6 51 7.34315 51 9C51 10.6569 49.6569 12 48 12H30C28.3431 12 27 10.6569 27 9Z" fill="#848484"/>
<path d="M23 150C23 149.448 23.4477 149 24 149H54C54.5523 149 55 149.448 55 150C55 150.552 54.5523 151 54 151H24C23.4477 151 23 150.552 23 150Z" fill="#848484"/>
<path d="M9 66C9 63.7909 10.7909 62 13 62H65.0984C67.3075 62 69.0984 63.7909 69.0984 66V77.6639C69.0984 79.873 67.3075 81.6639 65.0984 81.6639H13C10.7909 81.6639 9 79.873 9 77.6639V66Z" fill="#E4E4E4"/>
<path d="M64.1309 18C66.34 18 68.1309 19.7909 68.1309 22L68.1309 33.6639C68.1309 35.873 66.34 37.6639 64.1309 37.6639L43.9997 37.6639C41.7906 37.6639 39.9997 35.873 39.9997 33.6639L39.9997 22C39.9997 19.7909 41.7906 18 43.9997 18L64.1309 18Z" fill="#E4E4E4"/>
<path d="M34.1309 85C36.34 85 38.1309 86.7909 38.1309 89L38.1309 100.664C38.1309 102.873 36.34 104.664 34.1309 104.664L13.9997 104.664C11.7906 104.664 9.99971 102.873 9.99971 100.664L9.99971 89C9.99971 86.7909 11.7906 85 13.9997 85L34.1309 85Z" fill="#E4E4E4"/>
<path d="M64.1309 40C66.34 40 68.1309 41.7909 68.1309 44L68.1309 55.6639C68.1309 57.873 66.34 59.6639 64.1309 59.6639L43.9997 59.6639C41.7906 59.6639 39.9997 57.873 39.9997 55.6639L39.9997 44C39.9997 41.7909 41.7906 40 43.9997 40L64.1309 40Z" fill="#E4E4E4"/>
<path d="M34.1309 107C36.34 107 38.1309 108.791 38.1309 111L38.1309 122.664C38.1309 124.873 36.34 126.664 34.1309 126.664L13.9997 126.664C11.7906 126.664 9.99971 124.873 9.99971 122.664L9.99971 111C9.99971 108.791 11.7906 107 13.9997 107L34.1309 107Z" fill="#E4E4E4"/>
<path d="M65 85C67.2091 85 69 86.7909 69 89L69 122C69 124.209 67.2091 126 65 126L45 126C42.7909 126 41 124.209 41 122L41 89C41 86.7909 42.7909 85 45 85L65 85Z" fill="#E4E4E4"/>
<path d="M33 18C35.2091 18 37 19.7909 37 22L37 55C37 57.2091 35.2091 59 33 59L13 59C10.7909 59 9 57.2091 9 55L9 22C9 19.7909 10.7909 18 13 18L33 18Z" fill="#E4E4E4"/>
</g>
<defs>
<clipPath id="clip0_864_11294">
<rect width="78" height="156" fill="white"/>
</clipPath>
</defs>
</svg>
