<svg width="78" height="156" viewBox="0 0 78 156" fill="none" xmlns="http://www.w3.org/2000/svg">
<g clip-path="url(#clip0_864_11291)">
<path d="M16 1.5H62C70.0081 1.5 76.5 7.99187 76.5 16V140C76.5 148.008 70.0081 154.5 62 154.5H16C7.99187 154.5 1.5 148.008 1.5 140V16C1.5 7.99187 7.99187 1.5 16 1.5Z" fill="white" stroke="#F58274" stroke-width="3"/>
<rect x="29.4102" y="5.24365" width="19.1803" height="6.55462" rx="3.27731" fill="white"/>
<path d="M27 9C27 7.34315 28.3431 6 30 6H48C49.6569 6 51 7.34315 51 9C51 10.6569 49.6569 12 48 12H30C28.3431 12 27 10.6569 27 9Z" fill="#F58274"/>
<path d="M23 150C23 149.448 23.4477 149 24 149H54C54.5523 149 55 149.448 55 150C55 150.552 54.5523 151 54 151H24C23.4477 151 23 150.552 23 150Z" fill="#F58274"/>
<path d="M9 111C9 108.791 10.7909 107 13 107H65.0984C67.3075 107 69.0984 108.791 69.0984 111V122.664C69.0984 124.873 67.3075 126.664 65.0984 126.664H13C10.7909 126.664 9 124.873 9 122.664V111Z" fill="#FCE7E7"/>
<path d="M65.1309 18C67.34 18 69.1309 19.7909 69.1309 22L69.1309 57.2605C69.1309 59.4696 67.34 61.2605 65.1309 61.2605L44.9997 61.2605C42.7906 61.2605 40.9997 59.4696 40.9997 57.2605L40.9997 22C40.9997 19.7909 42.7906 18 44.9997 18L65.1309 18Z" fill="#FCE7E7"/>
<path d="M33.1309 40C35.34 40 37.1309 41.7909 37.1309 44L37.1309 79.2605C37.1309 81.4696 35.34 83.2605 33.1309 83.2605L12.9997 83.2605C10.7906 83.2605 8.99971 81.4696 8.99971 79.2605L8.99971 44C8.99971 41.7909 10.7906 40 12.9997 40L33.1309 40Z" fill="#FCE7E7"/>
<path d="M33.1309 18C35.34 18 37.1309 19.7909 37.1309 22L37.1309 33.6639C37.1309 35.873 35.34 37.6639 33.1309 37.6639L12.9997 37.6639C10.7906 37.6639 8.99971 35.873 8.99971 33.6639L8.99971 22C8.99971 19.7909 10.7906 18 12.9997 18L33.1309 18Z" fill="#FCE7E7"/>
<path d="M65 63.5883C67.2091 63.5883 69 65.3791 69 67.5883L69 78.5883C69 80.7974 67.2091 82.5883 65 82.5883L45 82.5883C42.7909 82.5883 41 80.7974 41 78.5883L41 67.5883C41 65.3791 42.7909 63.5883 45 63.5883L65 63.5883Z" fill="#FCE7E7"/>
<path d="M33.1309 85C35.34 85 37.1309 86.7909 37.1309 89L37.1309 100.664C37.1309 102.873 35.34 104.664 33.1309 104.664L12.9997 104.664C10.7906 104.664 8.99971 102.873 8.99971 100.664L8.99971 89C8.99971 86.7909 10.7906 85 12.9997 85L33.1309 85Z" fill="#FCE7E7"/>
<path d="M65.0977 85C67.3068 85 69.0977 86.7909 69.0977 89L69.0977 100.664C69.0977 102.873 67.3068 104.664 65.0977 104.664L44.9665 104.664C42.7574 104.664 40.9665 102.873 40.9665 100.664L40.9665 89C40.9665 86.7909 42.7574 85 44.9665 85L65.0977 85Z" fill="#FCE7E7"/>
</g>
<defs>
<clipPath id="clip0_864_11291">
<rect width="78" height="156" fill="white"/>
</clipPath>
</defs>
</svg>
