<svg width="16" height="16" viewBox="0 0 16 16" fill="none" xmlns="http://www.w3.org/2000/svg">
<g clip-path="url(#clip0_1923_20835)">
<path fill-rule="evenodd" clip-rule="evenodd" d="M16 7.07305C16 3.53508 12.4183 0.666992 7.99997 0.666992C3.58167 0.666992 -0.000115441 3.53508 2.79056e-09 7.07305C2.79056e-09 10.2266 2.84581 12.8479 6.59326 13.3803L6.59493 13.3805C6.68296 13.393 6.77174 13.404 6.86075 13.4142C7.65729 13.5801 7.52553 14.2648 7.41575 14.8353C7.34968 15.1787 7.29157 15.4807 7.44854 15.6033C7.92914 15.9789 11.5706 13.5444 13.7829 11.4996C14.103 11.2314 14.3943 10.941 14.6529 10.6316L14.6575 10.6265C14.7192 10.5585 14.7682 10.497 14.8056 10.4413C15.5627 9.46267 16 8.30885 16 7.07305ZM4.97207 9.11604H3.35859C3.12908 9.11604 2.94137 8.92827 2.94137 8.69871V5.60422C2.94137 5.37472 3.12908 5.187 3.35859 5.187H3.3934C3.6229 5.187 3.81062 5.37472 3.81062 5.60422V8.24673H4.97207C5.20157 8.24673 5.38929 8.43445 5.38929 8.66396V8.69876C5.38929 8.92827 5.20157 9.11604 4.97207 9.11604ZM13.3565 7.14157V7.17637C13.3565 7.40582 13.1688 7.5936 12.9393 7.59348H11.7779V8.25412H12.9393C13.1688 8.25412 13.3565 8.44184 13.3565 8.67134V8.70615C13.3565 8.93566 13.1688 9.12343 12.9393 9.12343H11.3258C11.0963 9.12343 10.9085 8.93566 10.9085 8.70615V5.61167C10.9085 5.38216 11.0963 5.19445 11.3258 5.19445H12.9393C13.1688 5.19445 13.3565 5.38216 13.3565 5.61167V5.64648C13.3565 5.87599 13.1688 6.0637 12.9393 6.0637H11.7779V6.72434H12.9393C13.1688 6.72434 13.3565 6.91206 13.3565 7.14157ZM10.2536 8.99165C10.2289 9.02184 10.1937 9.04747 10.152 9.06733C10.092 9.09935 10.025 9.11608 9.95704 9.11604H9.92223C9.8663 9.11604 9.81285 9.10485 9.76396 9.08464C9.70035 9.0608 9.64326 9.02178 9.60152 8.96487C9.5905 8.95159 9.58022 8.93751 9.57087 8.92296L8.05194 6.84833V8.69882C8.05194 8.92833 7.86423 9.1161 7.63472 9.1161H7.59991C7.37035 9.1161 7.18263 8.92833 7.18263 8.69882V5.60434C7.18263 5.37483 7.37041 5.18712 7.59991 5.18712H7.63472C7.7893 5.18712 7.92495 5.27232 7.99699 5.3981L9.50507 7.42083V5.60434C9.50507 5.37483 9.69278 5.18712 9.92229 5.18712H9.9571C10.1867 5.18712 10.3744 5.37483 10.3744 5.60434V8.69882C10.3743 8.80846 10.3308 8.91381 10.2536 8.99165ZM6.17808 9.11604H6.14327C5.91376 9.11604 5.72599 8.92827 5.72599 8.69876V5.60428C5.72599 5.37477 5.91376 5.18706 6.14327 5.18706H6.17808C6.40758 5.18706 6.5953 5.37477 6.5953 5.60428V8.69876C6.5953 8.92827 6.40758 9.11604 6.17808 9.11604Z" fill="#3ACE01"/>
</g>
<defs>
<clipPath id="clip0_1923_20835">
<rect width="16" height="16" fill="white"/>
</clipPath>
</defs>
</svg>
