<svg width="655" height="218" viewBox="0 0 655 218" fill="none" xmlns="http://www.w3.org/2000/svg">
<path d="M230.324 153.793C229.017 155.438 229.204 156.742 230.853 157.767C232.597 158.946 234.869 160.561 237.671 162.672C239.227 164.131 240.752 163.945 242.216 162.051C242.776 161.244 243.056 160.592 243.056 160.033C243.056 159.474 242.714 158.915 242.029 158.326C240.068 156.773 237.453 155.035 234.122 153.11C232.628 152.303 231.383 152.551 230.324 153.793Z" fill="#DF5948"/>
<path d="M286.481 191.605C281.718 188.128 277.796 182.975 274.745 176.145C278.543 172.668 282.154 169.067 285.578 165.341C287.104 163.634 286.886 162.206 284.925 161.057C283.181 160.064 281.812 160.281 280.784 161.74C278.668 164.472 275.928 167.515 272.535 170.867C271.29 167.484 270.169 163.417 269.235 158.729V150.44C269.235 148.422 268.208 147.429 266.123 147.429C264.037 147.429 263.01 148.422 263.01 150.44V198.745C263.01 199.707 262.543 200.204 261.578 200.204H259.305C257.655 200.173 256.441 200.452 255.663 201.042C254.885 201.663 254.729 202.595 255.196 203.898C255.601 205.016 256.535 205.761 258.091 206.071C259.617 206.382 261.142 206.413 262.667 206.134C264.193 205.854 265.438 205.482 266.434 204.985C268.302 204.054 269.235 201.974 269.235 198.745V174.717C272.66 184.868 277.205 192.319 282.932 197.038C283.835 197.783 284.644 198.155 285.329 198.093C286.014 198.062 286.761 197.596 287.539 196.696C288.411 195.61 288.753 194.678 288.567 193.933C288.38 193.157 287.695 192.381 286.481 191.605Z" fill="#DF5948"/>
<path d="M242.091 177.821C240.317 176.393 238.916 176.704 237.857 178.69C235.772 182.913 233.095 187.569 229.795 192.598C228.799 194.119 229.141 195.423 230.822 196.572C232.69 197.876 234.122 197.627 235.18 195.889C237.764 191.481 240.379 186.731 242.963 181.609C243.679 180.087 243.398 178.815 242.091 177.821Z" fill="#DF5948"/>
<path d="M259.928 164.876C259.243 163.944 258.185 163.479 256.753 163.479H247.009C245.017 163.479 244.021 164.441 244.021 166.366C244.021 168.291 245.017 169.253 247.009 169.253H253.111C254.138 169.253 254.543 169.874 254.294 171.085C251.959 180.677 248.223 187.849 243.118 192.598C242.153 193.405 241.655 194.088 241.624 194.709C241.593 195.33 241.935 196.075 242.714 197.007C243.461 197.938 244.083 198.435 244.644 198.559C245.173 198.652 245.92 198.341 246.823 197.596C253.484 191.388 258.06 181.857 260.519 168.974C260.831 167.142 260.644 165.776 259.928 164.876Z" fill="#DF5948"/>
<path d="M358.514 153.296H340.926L341.704 151.403C342.389 149.385 341.735 148.143 339.681 147.708C337.657 147.212 336.319 147.957 335.727 149.975C334.046 154.197 331.93 157.767 329.439 160.654C328.568 161.523 328.163 162.299 328.225 162.92C328.287 163.541 328.848 164.224 329.875 164.938C331.525 165.993 332.926 165.807 334.109 164.441C335.198 163.137 336.599 161.12 338.342 158.326H341.58C343.261 160.623 344.599 162.672 345.595 164.441C346 165.279 346.467 165.776 347.027 165.931C347.588 166.087 348.304 165.962 349.175 165.59C350.949 164.907 351.448 163.82 350.669 162.33C349.922 161.026 349.051 159.723 348.023 158.357H358.545C360.288 158.357 361.129 157.518 361.129 155.842C361.098 154.135 360.257 153.296 358.514 153.296Z" fill="#DF5948"/>
<path d="M326.762 177.883C328.63 177.883 329.564 176.952 329.564 175.12C329.564 173.32 328.63 172.42 326.762 172.42H319.883V165.683L320.007 165.621C320.816 165.248 321.408 164.783 321.719 164.193C322.03 163.603 322.093 162.951 321.875 162.144C321.657 161.337 321.439 160.716 321.221 160.219C321.003 159.722 320.661 159.102 320.194 158.294H328.256C330 158.294 330.84 157.425 330.84 155.718C330.84 154.041 329.968 153.203 328.256 153.203H314.964C315.058 152.986 315.182 152.675 315.307 152.241C315.462 151.806 315.587 151.496 315.649 151.341C316.396 149.385 315.742 148.143 313.781 147.677C311.914 147.243 310.637 147.957 309.952 149.757C308.178 154.197 305.999 158.046 303.384 161.337C302.575 162.206 302.201 162.982 302.295 163.634C302.388 164.286 302.917 164.907 303.913 165.559C305.47 166.552 306.84 166.366 307.991 164.938C309.361 163.106 310.824 160.902 312.349 158.325H314.093C315.4 160.84 316.458 163.293 317.268 165.683H317.081C316.116 165.683 315.369 165.931 314.84 166.459C314.31 166.987 314.03 167.701 314.03 168.632V172.42H305.719C303.851 172.42 302.917 173.32 302.917 175.12C302.917 176.952 303.851 177.883 305.719 177.883H312.785C310.108 183.906 306.808 188.997 302.917 193.095C302.139 193.84 301.734 194.523 301.703 195.144C301.672 195.765 302.046 196.448 302.762 197.255C303.509 198.124 304.162 198.59 304.754 198.652C305.345 198.683 306.03 198.31 306.871 197.472C309.174 194.709 311.54 191.232 313.999 187.041V203.712C313.999 205.606 314.964 206.537 316.925 206.537C318.886 206.537 319.851 205.606 319.851 203.712V186.11C321.283 187.755 322.746 189.494 324.272 191.388C325.081 192.35 325.797 192.816 326.357 192.753C326.918 192.691 327.603 192.164 328.443 191.201C328.91 190.611 329.221 190.177 329.377 189.897C329.533 189.587 329.564 189.277 329.501 188.935C329.439 188.594 329.159 188.19 328.692 187.786C328.35 187.507 327.011 186.296 324.676 184.185C322.342 182.074 320.723 180.646 319.883 179.87V177.976H326.762V177.883Z" fill="#DF5948"/>
<path d="M354.561 167.949H335.727C334.42 167.949 333.393 168.322 332.615 169.067C331.836 169.812 331.432 170.836 331.432 172.078V199.428C331.432 200.701 331.836 201.694 332.615 202.47C333.393 203.246 334.42 203.619 335.727 203.619H354.561C355.868 203.619 356.895 203.246 357.705 202.47C358.514 201.694 358.919 200.67 358.919 199.428V172.078C358.919 170.805 358.514 169.812 357.705 169.067C356.895 168.322 355.837 167.949 354.561 167.949ZM352.724 197.193C352.724 198.248 352.195 198.776 351.105 198.776H338.903C337.813 198.776 337.284 198.248 337.284 197.193V193.157H352.724V197.193ZM352.724 188.563H337.284V183.099H352.724V188.563ZM352.724 178.566H337.284V174.717C337.284 173.723 337.813 173.196 338.903 173.196H351.105C352.195 173.196 352.724 173.692 352.724 174.717V178.566Z" fill="#DF5948"/>
<path d="M387.09 157.953H431.512C433.317 157.953 434.251 157.053 434.251 155.252C434.251 153.483 433.348 152.613 431.512 152.613H409.908V150.409C409.908 148.36 408.85 147.336 406.733 147.336C404.616 147.336 403.558 148.36 403.558 150.409V152.613H384.071C382.763 152.613 381.736 152.986 380.927 153.731C380.117 154.476 379.713 155.5 379.713 156.742V172.916C379.713 184.992 378.25 194.151 375.355 200.39C374.452 202.191 374.763 203.588 376.257 204.612C377.222 205.233 378.001 205.482 378.623 205.326C379.246 205.171 379.837 204.612 380.335 203.588C383.76 196.541 385.472 186.327 385.472 172.885V159.443C385.472 158.45 386.032 157.953 387.09 157.953Z" fill="#DF5948"/>
<path d="M432.103 194.182H412.616V190.27H424.881C426.188 190.27 427.216 189.897 428.025 189.121C428.834 188.345 429.239 187.321 429.239 186.079V174.872C429.239 173.599 428.834 172.606 428.025 171.861C427.216 171.116 426.188 170.743 424.881 170.743H412.616V167.049H430.08C431.667 167.049 432.476 166.273 432.476 164.721C432.476 163.168 431.667 162.392 430.08 162.392H412.616V161.119C412.616 159.226 411.651 158.294 409.69 158.294C407.729 158.294 406.764 159.226 406.764 161.119V162.392H390.981C389.394 162.392 388.584 163.168 388.584 164.721C388.584 166.273 389.394 167.049 390.981 167.049H406.764V170.743H395.153C393.845 170.743 392.818 171.116 392.009 171.861C391.199 172.606 390.795 173.63 390.795 174.872V186.079C390.795 187.352 391.199 188.345 392.009 189.121C392.818 189.897 393.845 190.27 395.153 190.27H406.764V194.182H388.398C386.717 194.182 385.876 194.989 385.876 196.634C385.876 198.31 386.717 199.149 388.398 199.149H406.764V203.681C406.764 205.575 407.729 206.506 409.69 206.506C411.651 206.506 412.616 205.575 412.616 203.681V199.149H432.103C433.784 199.149 434.624 198.31 434.624 196.634C434.624 194.989 433.784 194.182 432.103 194.182ZM412.616 174.562H421.955C423.044 174.562 423.574 175.089 423.574 176.145V178.659H412.616V174.562ZM412.616 182.292H423.574V184.93C423.574 185.924 423.044 186.452 421.955 186.452H412.616V182.292ZM406.764 186.421H397.861C396.771 186.421 396.242 185.924 396.242 184.899V182.261H406.764V186.421ZM406.764 178.628H396.242V176.114C396.242 175.058 396.771 174.531 397.861 174.531H406.764V178.628Z" fill="#DF5948"/>
<path d="M504.821 183.782H491.248V181.329C495.015 178.784 498.159 175.865 500.649 172.637C501.677 170.992 501.988 169.75 501.552 168.849C501.116 167.98 500.058 167.546 498.377 167.546H475.653C473.785 167.546 472.851 168.446 472.851 170.246C472.851 172.047 473.785 172.947 475.653 172.947H493.583C491.809 174.655 489.723 176.393 487.295 178.163H487.108C486.548 178.163 486.081 178.349 485.707 178.69C485.334 179.032 485.147 179.529 485.147 180.119V183.782H470.423C468.462 183.782 467.497 184.744 467.497 186.669C467.497 188.563 468.462 189.494 470.423 189.494H485.147V199.552C485.147 200.297 484.649 200.701 483.653 200.763H479.762C478.299 200.732 477.178 200.98 476.431 201.508C475.684 202.036 475.466 202.905 475.808 204.023C476.275 205.575 477.769 206.351 480.229 206.351C484.12 206.258 486.766 206.009 488.135 205.544C489.318 205.078 490.128 204.395 490.563 203.495C491.03 202.595 491.248 201.322 491.248 199.676V189.494H504.821C506.751 189.494 507.747 188.563 507.747 186.669C507.747 184.744 506.782 183.782 504.821 183.782Z" fill="#DF5948"/>
<path d="M503.669 161.399C505.661 161.399 506.657 160.436 506.657 158.512C506.657 156.587 505.661 155.625 503.669 155.625H474.065C474.19 155.252 474.408 154.631 474.688 153.793C474.968 152.955 475.186 152.334 475.31 151.961C476.057 149.819 475.279 148.516 473.038 147.988C470.952 147.491 469.645 148.267 469.084 150.316C468.68 151.496 468.057 153.265 467.217 155.594H452.212C450.22 155.594 449.224 156.556 449.224 158.481C449.224 160.405 450.22 161.368 452.212 161.368H464.602C460.711 169.377 455.761 175.772 449.816 180.553C448.041 181.764 447.636 183.285 448.57 185.086C449.66 187.135 451.216 187.414 453.24 185.893C454.329 185.055 455.574 183.937 457.006 182.571V203.278C457.006 205.295 458.065 206.289 460.182 206.289C462.267 206.289 463.294 205.295 463.294 203.278V175.462C466.283 171.488 469.053 166.77 471.606 161.368H503.669V161.399Z" fill="#DF5948"/>
<path d="M569.507 190.332H539.062V186.638H564.9C566.207 186.638 567.234 186.265 568.044 185.489C568.853 184.713 569.258 183.689 569.258 182.447V177.356C569.258 176.083 568.853 175.089 568.044 174.313C567.234 173.537 566.207 173.165 564.9 173.165H537.568C536.261 173.165 535.234 173.537 534.455 174.313C533.677 175.089 533.272 176.114 533.272 177.356V200.359C533.272 201.632 533.677 202.626 534.455 203.371C535.234 204.116 536.261 204.488 537.568 204.488H569.507C570.814 204.488 571.841 204.116 572.62 203.371C573.398 202.626 573.803 201.601 573.803 200.359V194.523C573.803 193.25 573.398 192.257 572.62 191.512C571.841 190.705 570.814 190.332 569.507 190.332ZM539.062 179.125C539.062 178.07 539.592 177.542 540.619 177.542H561.538C562.565 177.542 563.094 178.07 563.094 179.125V180.584C563.094 181.64 562.565 182.167 561.538 182.167H539.062V179.125ZM567.639 198.373C567.639 199.366 567.11 199.894 566.02 199.894H540.65C539.623 199.894 539.094 199.397 539.094 198.373V194.833H566.02C567.11 194.833 567.639 195.33 567.639 196.355V198.373Z" fill="#DF5948"/>
<path d="M578.41 151.961H560.168C560.293 151.806 560.417 151.558 560.479 151.278C561.475 149.323 560.915 148.081 558.798 147.584C556.993 147.119 555.685 147.739 554.907 149.416C553.911 151.434 552.666 153.265 551.141 154.88C550.456 155.594 550.113 155.469 550.113 154.507V154.259C550.113 152.738 549.304 151.992 547.716 151.992H534.144L534.518 151.247C535.389 149.323 534.767 148.112 532.712 147.615C530.969 147.181 529.755 147.801 529.008 149.447C527.14 152.831 525.21 155.625 523.156 157.736C522.284 158.574 521.879 159.319 521.91 159.971C521.941 160.623 522.471 161.275 523.467 161.958C524.899 162.889 526.206 162.734 527.358 161.523C528.821 159.878 530.066 158.325 531.062 156.866H533.148C533.833 158.077 534.549 159.443 535.234 160.964C535.794 162.516 537.039 163.044 538.938 162.548C540.743 162.02 541.304 160.902 540.557 159.288L539.311 156.897H549.179C548.432 157.611 547.685 158.294 546.907 158.915C546.44 159.257 546.44 159.536 546.969 159.785C547.125 159.878 547.374 160.002 547.654 160.157C547.934 160.312 548.121 160.436 548.214 160.468H547.903V165.124H527.856C526.549 165.124 525.521 165.497 524.712 166.273C523.903 167.049 523.498 168.073 523.498 169.315V174.655C523.498 176.486 524.463 177.418 526.362 177.418C528.261 177.418 529.226 176.486 529.226 174.655V171.395C529.226 170.34 529.755 169.812 530.844 169.812H571.561C572.651 169.812 573.18 170.34 573.18 171.395V174.531C573.18 176.455 574.176 177.418 576.168 177.418C578.161 177.418 579.157 176.455 579.157 174.531V169.315C579.157 168.042 578.752 167.049 577.974 166.273C577.196 165.497 576.168 165.124 574.861 165.124H553.818V160.468H553.693C554.814 159.35 555.872 158.139 556.806 156.897H561.475C563.032 158.915 564.059 160.374 564.526 161.306C565.273 162.734 566.518 163.199 568.293 162.703C570.378 162.144 570.876 160.995 569.849 159.164C569.756 159.039 569.507 158.698 569.102 158.17C568.697 157.611 568.386 157.208 568.168 156.897H578.441C580.122 156.897 580.962 156.09 580.962 154.507C580.931 152.8 580.091 151.961 578.41 151.961Z" fill="#DF5948"/>
<path d="M651.843 198.9H637.96V191.232H649.758C651.625 191.232 652.559 190.332 652.559 188.532C652.559 186.731 651.625 185.831 649.758 185.831H637.96V179.218H647.361C648.668 179.218 649.695 178.815 650.505 178.039C651.314 177.262 651.719 176.238 651.719 174.996V154.445C651.719 153.172 651.314 152.179 650.505 151.403C649.695 150.627 648.668 150.254 647.361 150.254H622.302C620.994 150.254 619.967 150.627 619.189 151.403C618.411 152.179 618.006 153.203 618.006 154.445V174.996C618.006 176.269 618.411 177.262 619.189 178.039C619.967 178.815 620.994 179.218 622.302 179.218H631.703V185.831H620.216C618.348 185.831 617.415 186.731 617.415 188.532C617.415 190.332 618.348 191.232 620.216 191.232H631.703V198.9H615.422C613.554 198.9 612.621 199.832 612.621 201.663C612.621 203.464 613.554 204.364 615.422 204.364H651.843C653.711 204.364 654.645 203.464 654.645 201.663C654.645 199.801 653.711 198.9 651.843 198.9ZM637.43 155.314H644.248C645.337 155.314 645.866 155.811 645.866 156.835V162.237H637.43V155.314ZM632.232 174.096H625.166C624.138 174.096 623.609 173.568 623.609 172.513V166.987H632.232V174.096ZM632.232 162.237H623.609V156.835C623.609 155.842 624.138 155.314 625.166 155.314H632.232V162.237ZM637.43 167.018H645.866V172.544C645.866 173.599 645.337 174.127 644.248 174.127H637.43V167.018Z" fill="#DF5948"/>
<path d="M615.298 190.767C614.924 188.656 613.679 187.942 611.593 188.625C611.189 188.749 610.566 188.935 609.694 189.215C608.823 189.494 608.2 189.68 607.827 189.804V175.214H611.251C613.15 175.214 614.115 174.282 614.115 172.451C614.115 170.619 613.15 169.688 611.251 169.688H607.827V156.866H612.309C614.208 156.866 615.173 155.935 615.173 154.103C615.173 152.272 614.208 151.341 612.309 151.341H597.118C595.219 151.341 594.254 152.272 594.254 154.103C594.254 155.935 595.219 156.866 597.118 156.866H601.974V169.688H597.679C595.78 169.688 594.815 170.619 594.815 172.451C594.815 174.282 595.78 175.214 597.679 175.214H601.974V191.574C599.795 192.257 597.897 192.816 596.247 193.281C595.251 193.53 594.628 193.933 594.317 194.523C594.037 195.082 594.005 195.889 594.223 196.882C594.659 199.024 595.873 199.801 597.865 199.211C603.033 197.565 608.138 195.889 613.181 194.12C614.924 193.53 615.609 192.412 615.298 190.767Z" fill="#DF5948"/>
<path d="M237.608 111.697C243.025 111.697 245.733 109.369 245.733 104.712V83.5089H267.741C272.224 83.5089 274.465 81.5532 274.465 77.6416C274.465 73.7921 272.224 71.8674 267.741 71.8674H245.733V53.6755H272.753C277.174 53.6755 279.384 51.7507 279.384 47.9012C279.384 44.0518 277.174 42.127 272.753 42.127H236.643C234.496 42.127 232.783 42.6858 231.476 43.8344C230.169 44.952 229.515 46.4422 229.515 48.2738V104.743C229.484 109.369 232.192 111.697 237.608 111.697Z" fill="#DF5948"/>
<path d="M316.894 113.001C324.147 113.001 330.684 110.052 336.443 104.184H336.879L337.315 106.668C337.813 110.052 340.148 111.728 344.35 111.728C348.895 111.728 351.199 109.865 351.199 106.14V65.8758C351.199 61.3434 348.553 59.0771 343.292 59.0771C337.875 59.0771 335.167 61.3434 335.167 65.8758V94.6228C333.019 97.0132 331.027 98.6896 329.19 99.683C327.322 100.676 325.175 101.142 322.684 101.142C319.696 101.142 317.517 100.304 316.178 98.6585C314.809 97.0132 314.155 94.1882 314.155 90.2145V65.8758C314.155 61.3434 311.509 59.0771 306.248 59.0771C300.832 59.0771 298.123 61.3434 298.123 65.8758V91.953C298.092 105.985 304.349 113.001 316.894 113.001Z" fill="#DF5948"/>
<path d="M384.351 111.697C389.767 111.697 392.476 109.369 392.476 104.712V83.5089H414.484C418.966 83.5089 421.208 81.5532 421.208 77.6416C421.208 73.7921 418.966 71.8674 414.484 71.8674H392.476V53.6755H419.496C423.916 53.6755 426.126 51.7507 426.126 47.9012C426.126 44.0518 423.916 42.127 419.496 42.127H383.386C381.238 42.127 379.526 42.6858 378.218 43.8344C376.911 44.952 376.257 46.4422 376.257 48.2738V104.743C376.226 109.369 378.934 111.697 384.351 111.697Z" fill="#DF5948"/>
<path d="M450.345 105.457C456.135 110.486 463.076 113.001 471.108 113.001C479.139 113.001 486.05 110.486 491.84 105.457C497.63 100.428 500.494 93.7535 500.494 85.4337C500.494 77.4863 497.754 70.8739 492.276 65.5964C486.797 60.3189 479.731 57.7112 471.139 57.7112C463.076 57.7112 456.166 60.2258 450.376 65.286C444.586 70.3462 441.66 77.0517 441.66 85.4337C441.629 93.7846 444.555 100.459 450.345 105.457ZM461.302 73.6369C463.45 70.5635 466.719 69.0113 471.139 69.0113C475.279 69.0113 478.454 70.4704 480.696 73.4196C482.937 76.3688 484.057 80.3735 484.057 85.4647C484.057 90.4939 482.937 94.4365 480.696 97.3546C478.454 100.273 475.279 101.701 471.139 101.701C466.999 101.701 463.792 100.242 461.52 97.3546C459.248 94.4365 458.096 90.4939 458.096 85.4647C458.096 80.6839 459.154 76.7413 461.302 73.6369Z" fill="#DF5948"/>
<path d="M525.366 105.457C531.156 110.486 538.097 113.001 546.129 113.001C554.16 113.001 561.071 110.486 566.861 105.457C572.651 100.428 575.515 93.7535 575.515 85.4337C575.515 77.4863 572.775 70.8739 567.297 65.5964C561.818 60.3189 554.752 57.7112 546.16 57.7112C538.097 57.7112 531.187 60.2258 525.397 65.286C519.607 70.3462 516.681 77.0517 516.681 85.4337C516.681 93.7846 519.576 100.459 525.366 105.457ZM536.323 73.6369C538.471 70.5635 541.74 69.0113 546.16 69.0113C550.3 69.0113 553.475 70.4704 555.717 73.4196C557.958 76.3688 559.078 80.3735 559.078 85.4647C559.078 90.4939 557.958 94.4365 555.717 97.3546C553.475 100.273 550.3 101.701 546.16 101.701C542.02 101.701 538.813 100.242 536.541 97.3546C534.269 94.4365 533.117 90.4939 533.117 85.4647C533.117 80.6839 534.175 76.7413 536.323 73.6369Z" fill="#DF5948"/>
<path d="M617.103 113.001C623.018 113.001 628.652 110.766 633.975 106.295H634.286L634.504 107.04C635.22 110.176 637.617 111.728 641.664 111.728C643.874 111.728 645.586 111.262 646.831 110.3C648.077 109.338 648.699 108.003 648.699 106.202V43.5861C648.699 38.9915 646.022 36.6943 640.699 36.6943C635.282 36.6943 632.574 38.9915 632.574 43.5861V55.2587L633.228 63.5165C630.8 61.5607 628.434 60.1016 626.068 59.1703C623.734 58.2079 620.932 57.7422 617.726 57.7422C610.753 57.7422 604.714 60.2879 599.609 65.4102C594.503 70.5325 591.982 77.207 591.982 85.4647C591.982 93.9708 594.254 100.707 598.83 105.612C603.406 110.517 609.508 113.001 617.103 113.001ZM612.216 73.3575C614.644 70.5014 617.663 69.0734 621.306 69.0734C625.508 69.0734 629.275 70.3772 632.637 73.016V96.1439C629.43 99.7451 625.664 101.577 621.306 101.577C612.838 101.577 608.605 96.1129 608.605 85.2164C608.574 80.1872 609.788 76.2136 612.216 73.3575Z" fill="#DF5948"/>
<path d="M164.206 123.401C155.614 123.401 148.641 130.355 148.641 138.923C148.641 165 124.267 186.234 94.2901 186.234C64.3128 186.234 39.9387 165 39.9387 138.923C39.9387 130.355 32.9658 123.401 24.3741 123.401C15.7825 123.401 8.80957 130.355 8.80957 138.923C8.80957 182.136 47.1606 217.278 94.2901 217.278C141.42 217.278 179.771 182.105 179.771 138.923C179.771 130.355 172.798 123.401 164.206 123.401Z" fill="#DF5948"/>
<path d="M165.14 33.7761H180.891C189.483 33.7761 196.456 26.8222 196.456 18.254C196.456 9.68578 189.483 2.73187 180.891 2.73187H165.14C137.155 2.73187 114.399 24.3697 114.399 50.9746V92.667C114.399 101.235 121.372 108.189 129.964 108.189C138.089 108.189 144.688 101.949 145.404 94.0329C147.023 86.8617 153.311 81.4911 160.937 81.2737H180.891C189.483 81.2737 196.456 74.3198 196.456 65.7516C196.456 57.1834 189.483 50.2295 180.891 50.2295H145.591C146.089 41.0715 154.618 33.7761 165.14 33.7761Z" fill="#DF5948"/>
<path d="M30.7244 93.2879C30.7867 92.6049 30.8489 91.9219 30.9735 91.301C32.561 84.1298 38.8802 78.7281 46.5069 78.5108H47.5341H66.4606C75.0523 78.5108 82.0252 71.5569 82.0252 62.9887C82.0252 54.4205 75.0523 47.4666 66.4606 47.4666H31.2225C31.6894 38.3396 40.2188 31.0442 50.7404 31.0442H66.4918C75.0834 31.0442 82.0563 24.0903 82.0563 15.5221C82.0563 6.9539 75.0834 0 66.4918 0H50.7404C22.7554 0 0 21.6378 0 48.2427V89.904C0 98.4722 6.97292 105.426 15.5645 105.426C23.0044 105.426 29.168 100.211 30.7244 93.2879Z" fill="#DF5948"/>
</svg>
