<svg width="293" height="325" viewBox="0 0 293 325" fill="none" xmlns="http://www.w3.org/2000/svg">
<path d="M244.694 179.083C231.903 179.083 221.504 189.481 221.504 202.273C221.504 244.216 185.174 278.327 140.49 278.327C95.8067 278.327 59.4767 244.216 59.4767 202.273C59.4767 189.481 49.0781 179.083 36.2865 179.083C23.4948 179.083 13.0962 189.481 13.0962 202.273C13.0962 269.799 70.2669 324.707 140.534 324.707C210.801 324.707 267.972 269.799 267.972 202.273C267.928 189.438 257.529 179.083 244.694 179.083Z" fill="#DF5948"/>
<path d="M46.2065 136.009C48.73 125.48 57.9974 117.648 69.2227 117.3H99.0698C111.861 117.3 122.26 106.901 122.26 94.1098C122.26 81.3182 111.861 70.9196 99.0698 70.9196H46.511C47.2072 57.3013 59.9553 46.3805 75.6185 46.3805H99.0698C111.861 46.3805 122.26 35.9819 122.26 23.1903C122.26 10.3986 111.861 0 99.0698 0H75.6185C33.937 0 0 32.3271 0 72.0943V134.399C0 147.191 10.3986 157.589 23.1903 157.589C35.4163 157.546 45.3363 148.017 46.2065 136.009Z" fill="#DF5948"/>
<path d="M269.538 75.0094H217.023C217.719 61.3911 230.467 50.4704 246.13 50.4704H269.581C282.373 50.4704 292.772 40.0717 292.772 27.2801C292.772 14.4885 282.373 4.08984 269.581 4.08984H246.13C204.448 4.08984 170.511 36.417 170.511 76.1841V138.489C170.511 151.281 180.91 161.679 193.702 161.679C206.493 161.679 216.892 151.281 216.892 138.489V137.749C220.155 128.438 228.813 121.738 239.169 121.433H269.581C282.373 121.433 292.772 111.035 292.772 98.2432C292.772 85.408 282.373 75.0094 269.538 75.0094Z" fill="#DF5948"/>
</svg>
