<svg width="225" height="343" viewBox="0 0 225 343" fill="none" xmlns="http://www.w3.org/2000/svg">
<path d="M173.592 127.522C165.84 127.522 159.569 133.782 159.569 141.521C159.569 165.029 137.609 184.178 110.595 184.178C83.5812 184.178 61.6474 165.055 61.6474 141.521C61.6474 133.782 55.3769 127.522 47.6246 127.522C39.8724 127.522 33.6018 133.782 33.6018 141.521C33.6018 180.48 68.1297 212.15 110.595 212.15C153.06 212.15 187.588 180.454 187.588 141.521C187.615 133.809 181.318 127.522 173.592 127.522Z" fill="#DF5948"/>
<path d="M188.594 61.5424H156.844C157.267 53.328 164.967 46.7511 174.439 46.7511H188.62C196.372 46.7511 202.643 40.4912 202.643 32.7522C202.643 25.0132 196.372 18.7533 188.62 18.7533H174.439C149.25 18.7533 128.745 38.2725 128.745 62.2292V99.815C128.745 107.554 135.016 113.814 142.768 113.814C150.097 113.814 156.024 108.188 156.659 101.03C158.114 94.5588 163.776 89.7252 170.655 89.5139H188.647C196.399 89.5139 202.669 83.254 202.669 75.5149C202.669 67.7759 196.346 61.5424 188.594 61.5424Z" fill="#DF5948"/>
<path d="M53.3661 100.37C53.419 99.7621 53.472 99.1546 53.6043 98.5735C55.033 92.1023 60.7215 87.2423 67.6006 87.031H68.5266H85.5657C93.3179 87.031 99.5885 80.7711 99.5885 73.0321C99.5885 65.2931 93.3179 59.0332 85.5657 59.0332H53.8159C54.2392 50.8187 61.9386 44.2419 71.3841 44.2419H85.5657C93.3179 44.2419 99.5885 37.982 99.5885 30.243C99.5885 22.5039 93.3179 16.244 85.5657 16.244H71.3841C46.196 16.244 25.6909 35.7633 25.6909 59.7199V97.3057C25.6909 105.045 31.9615 111.305 39.7137 111.305C46.4076 111.331 51.9903 106.63 53.3661 100.37Z" fill="#DF5948"/>
<path d="M14.2611 320.1C15.8221 317.723 17.0656 315.53 18.0446 313.549C18.5208 312.598 19.2087 312.466 20.0289 313.127C20.6375 313.602 20.7962 314.183 20.4523 314.896C19.2352 317.3 17.9916 319.545 16.7746 321.632C16.2983 322.477 15.6104 322.583 14.7373 321.949C13.9436 321.42 13.7848 320.786 14.2611 320.1ZM17.9652 305.969C16.6423 304.965 15.5575 304.199 14.7638 303.644C13.9965 303.169 13.9171 302.535 14.5256 301.769C15.0019 301.162 15.6104 301.056 16.2983 301.452C17.8594 302.377 19.1029 303.195 20.0289 303.909C20.3464 304.173 20.5052 304.463 20.5052 304.701C20.5052 304.939 20.3729 305.282 20.1083 305.652C19.4204 306.55 18.706 306.656 17.9652 305.969ZM22.3572 306.339H26.961C27.6224 306.339 28.1251 306.55 28.4691 306.999C28.7866 307.421 28.8924 308.082 28.7337 308.927C27.5695 315.002 25.4264 319.492 22.2779 322.424C21.8545 322.767 21.5106 322.926 21.246 322.873C20.9814 322.82 20.6904 322.583 20.3464 322.134C19.976 321.685 19.8173 321.341 19.8173 321.051C19.8437 320.76 20.0818 320.443 20.5316 320.047C22.9393 317.802 24.6856 314.421 25.7968 309.904C25.9291 309.323 25.7439 309.033 25.2412 309.033H22.3572C21.4312 309.033 20.955 308.584 20.955 307.659C20.955 306.735 21.4312 306.339 22.3572 306.339ZM29.8978 322.952V300.158C29.8978 299.207 30.3741 298.732 31.3795 298.732C32.3584 298.732 32.8347 299.207 32.8347 300.158V304.067C33.2845 306.286 33.8136 308.187 34.3957 309.799C35.9832 308.214 37.2796 306.788 38.285 305.493C38.7613 304.807 39.4227 304.701 40.2429 305.176C41.169 305.705 41.2748 306.391 40.5604 307.184C38.9465 308.953 37.2532 310.644 35.454 312.281C36.9092 315.504 38.7348 317.934 40.9838 319.571C41.5658 319.941 41.8833 320.311 41.9627 320.681C42.0421 321.024 41.8833 321.473 41.4865 321.975C41.1161 322.398 40.7721 322.609 40.4546 322.635C40.1371 322.662 39.7402 322.477 39.3169 322.134C36.6182 319.888 34.4751 316.375 32.8611 311.595V322.926C32.8611 324.458 32.4113 325.435 31.5382 325.858C31.062 326.095 30.4799 326.28 29.7655 326.412C29.0512 326.545 28.3368 326.518 27.596 326.386C26.8816 326.228 26.4318 325.911 26.2466 325.356C26.0085 324.748 26.0878 324.299 26.4583 324.009C26.8287 323.718 27.3843 323.586 28.178 323.613H29.2364C29.6597 323.639 29.8978 323.428 29.8978 322.952Z" fill="#DF5948"/>
<path d="M56.8585 303.909C57.0702 304.278 57.2554 304.595 57.3348 304.807C57.4406 305.044 57.5464 305.335 57.6523 305.705C57.7581 306.075 57.7317 306.392 57.5729 306.656C57.4142 306.92 57.1496 307.157 56.7527 307.316L56.6998 307.342V310.512H59.9541C60.8273 310.512 61.277 310.935 61.277 311.78C61.277 312.651 60.8273 313.074 59.9541 313.074H56.6998V313.972C57.0967 314.315 57.8639 315.002 58.9752 316.006C60.0864 317.01 60.7214 317.564 60.8802 317.723C61.0918 317.934 61.2241 318.092 61.2506 318.277C61.277 318.436 61.2506 318.594 61.1977 318.726C61.1183 318.858 60.986 319.07 60.7479 319.36C60.351 319.809 60.0335 320.047 59.7689 320.1C59.5043 320.126 59.1869 319.915 58.79 319.466C58.0756 318.568 57.3877 317.749 56.6998 316.983V325.303C56.6998 326.201 56.25 326.65 55.324 326.65C54.3979 326.65 53.9481 326.201 53.9481 325.303V317.432C52.784 319.413 51.6727 321.051 50.588 322.371C50.1911 322.768 49.8736 322.952 49.5825 322.926C49.318 322.9 49.0005 322.688 48.6565 322.266C48.3126 321.896 48.1538 321.553 48.1538 321.262C48.1538 320.972 48.3655 320.655 48.7094 320.311C50.535 318.383 52.0961 315.979 53.3661 313.127H50.0323C49.1592 313.127 48.7094 312.704 48.7094 311.833C48.7094 310.987 49.1592 310.565 50.0323 310.565H53.9481V308.795C53.9481 308.346 54.0804 308.029 54.3186 307.765C54.5831 307.527 54.9271 307.395 55.3769 307.395H55.4563C55.0594 306.259 54.5567 305.124 53.9481 303.935H53.1279C52.4136 305.15 51.7257 306.18 51.0907 307.052C50.535 307.712 49.9 307.818 49.1592 307.342C48.683 307.052 48.4448 306.735 48.3919 306.444C48.339 306.127 48.5242 305.784 48.9211 305.361C50.1382 303.829 51.17 302.007 52.0167 299.894C52.3342 299.049 52.9427 298.732 53.8158 298.917C54.7419 299.128 55.0594 299.709 54.7154 300.633C54.6625 300.713 54.6096 300.845 54.5567 301.056C54.5038 301.267 54.4244 301.426 54.3979 301.505H60.6685C61.4887 301.505 61.8856 301.901 61.8856 302.694C61.8856 303.512 61.4887 303.909 60.6685 303.909H56.8585ZM66.6216 301.531H74.903C75.7232 301.531 76.1201 301.928 76.1201 302.72C76.1201 303.512 75.7232 303.909 74.903 303.909H69.9553C70.4316 304.543 70.8549 305.176 71.1988 305.784C71.5693 306.497 71.3311 306.999 70.4845 307.316C70.0876 307.501 69.7437 307.554 69.4791 307.474C69.2145 307.395 68.9764 307.184 68.8176 306.788C68.3414 305.969 67.7064 304.992 66.9126 303.909H65.3781C64.5579 305.203 63.8964 306.18 63.3937 306.788C62.8381 307.448 62.1766 307.527 61.4093 307.025C60.9331 306.682 60.6685 306.365 60.642 306.075C60.6156 305.784 60.8008 305.414 61.1977 305.018C62.3883 303.645 63.3672 301.981 64.161 299.973C64.452 299.022 65.0606 298.679 66.0395 298.917C66.992 299.128 67.3095 299.709 66.992 300.66L66.6216 301.531ZM64.1874 308.452H73.0509C73.6595 308.452 74.1622 308.637 74.5326 308.98C74.903 309.35 75.0882 309.825 75.0882 310.406V323.322C75.0882 323.93 74.903 324.405 74.5326 324.775C74.1622 325.145 73.6595 325.33 73.0509 325.33H64.1874C63.5789 325.33 63.0762 325.145 62.7322 324.775C62.3618 324.405 62.1766 323.93 62.1766 323.322V310.406C62.1766 309.825 62.3618 309.35 62.7322 308.98C63.0762 308.637 63.5524 308.452 64.1874 308.452ZM64.9018 313.47H72.1778V311.648C72.1778 311.172 71.9132 310.935 71.4105 310.935H65.6691C65.1664 310.935 64.9018 311.172 64.9018 311.648V313.47ZM72.2043 315.61H64.9283V318.198H72.2043V315.61ZM72.2043 320.364H64.9283V322.266C64.9283 322.768 65.1929 323.005 65.6956 323.005H71.437C71.9397 323.005 72.2043 322.768 72.2043 322.266V320.364Z" fill="#DF5948"/>
<path d="M109.325 303.75H88.3967C87.894 303.75 87.6294 303.988 87.6294 304.463V310.802C87.6294 317.142 86.8356 321.949 85.2217 325.277C84.9836 325.752 84.719 326.016 84.4015 326.096C84.1105 326.175 83.74 326.043 83.2903 325.752C82.5759 325.277 82.4436 324.617 82.8669 323.771C84.2427 320.813 84.9042 316.508 84.9042 310.802V303.169C84.9042 302.562 85.0894 302.113 85.4598 301.743C85.8302 301.399 86.3329 301.215 86.9415 301.215H96.1224V300.184C96.1224 299.207 96.6252 298.732 97.6306 298.732C98.636 298.732 99.1387 299.207 99.1387 300.184V301.215H109.325C110.172 301.215 110.622 301.637 110.622 302.456C110.595 303.328 110.172 303.75 109.325 303.75ZM100.409 320.839H109.59C110.383 320.839 110.78 321.236 110.78 322.002C110.78 322.794 110.383 323.19 109.59 323.19H100.409V325.33C100.409 326.228 99.9589 326.677 99.0328 326.677C98.1068 326.677 97.657 326.228 97.657 325.33V323.19H89.0052C88.2115 323.19 87.8146 322.794 87.8146 322.002C87.8146 321.236 88.2115 320.839 89.0052 320.839H97.657V318.991H92.1802C91.5716 318.991 91.0689 318.806 90.6985 318.436C90.3281 318.066 90.1429 317.591 90.1429 316.983V311.701C90.1429 311.119 90.3281 310.644 90.6985 310.274C91.0689 309.904 91.5716 309.746 92.1802 309.746H97.657V308.003H90.2223C89.455 308.003 89.0846 307.633 89.0846 306.893C89.0846 306.154 89.455 305.784 90.2223 305.784H97.657V305.176C97.657 304.278 98.1068 303.856 99.0328 303.856C99.9589 303.856 100.409 304.305 100.409 305.176V305.784H108.637C109.404 305.784 109.775 306.154 109.775 306.893C109.775 307.633 109.404 308.003 108.637 308.003H100.409V309.746H106.203C106.812 309.746 107.314 309.931 107.685 310.274C108.055 310.618 108.24 311.093 108.24 311.701V316.983C108.24 317.591 108.055 318.066 107.685 318.436C107.314 318.806 106.812 318.991 106.203 318.991H100.409V320.839ZM97.657 311.568H93.4766C92.9739 311.568 92.7093 311.806 92.7093 312.308V313.497H97.657V311.568ZM97.657 315.213H92.7093V316.455C92.7093 316.93 92.9739 317.168 93.4766 317.168H97.657V315.213ZM100.409 313.497H105.568V312.308C105.568 311.806 105.303 311.568 104.801 311.568H100.382V313.497H100.409ZM100.409 317.168H104.827C105.33 317.168 105.594 316.93 105.594 316.455V315.213H100.435V317.168H100.409Z" fill="#DF5948"/>
<path d="M143.324 305.361H128.216C126.999 307.923 125.703 310.116 124.3 312.017V325.145C124.3 326.096 123.824 326.571 122.845 326.571C121.84 326.571 121.337 326.096 121.337 325.145V315.372C120.676 316.032 120.067 316.534 119.564 316.93C118.612 317.643 117.871 317.511 117.368 316.534C116.919 315.689 117.104 314.976 117.95 314.395C120.755 312.15 123.083 309.112 124.935 305.335H119.062C118.136 305.335 117.659 304.886 117.659 303.962C117.659 303.063 118.136 302.588 119.062 302.588H126.126C126.523 301.479 126.84 300.66 127.026 300.105C127.29 299.128 127.899 298.758 128.878 298.996C129.936 299.234 130.306 299.867 129.936 300.871C129.883 301.056 129.777 301.347 129.645 301.743C129.513 302.139 129.407 302.43 129.354 302.614H143.297C144.223 302.614 144.7 303.063 144.7 303.988C144.726 304.912 144.25 305.361 143.324 305.361ZM130.148 308.267H140.863C141.657 308.267 142.16 308.478 142.371 308.901C142.583 309.323 142.424 309.904 141.948 310.67C140.757 312.202 139.276 313.549 137.503 314.764V315.927H143.906C144.832 315.927 145.282 316.376 145.282 317.3C145.282 318.198 144.832 318.647 143.906 318.647H137.503V323.454C137.503 324.22 137.397 324.828 137.186 325.25C136.974 325.673 136.577 325.99 136.048 326.201C135.386 326.413 134.143 326.545 132.317 326.597C131.153 326.597 130.465 326.228 130.227 325.488C130.068 324.96 130.148 324.564 130.518 324.3C130.889 324.035 131.391 323.93 132.106 323.956H133.931C134.407 323.93 134.646 323.745 134.646 323.402V318.647H127.714C126.788 318.647 126.338 318.198 126.338 317.3C126.338 316.402 126.788 315.927 127.714 315.927H134.646V314.21C134.646 313.946 134.725 313.708 134.91 313.549C135.095 313.391 135.307 313.285 135.572 313.285H135.651C136.789 312.466 137.794 311.621 138.614 310.829H130.174C129.301 310.829 128.851 310.406 128.851 309.561C128.825 308.716 129.248 308.267 130.148 308.267Z" fill="#DF5948"/>
<path d="M175.312 309.323H156.13C155.627 309.323 155.362 309.561 155.362 310.063V311.595C155.362 312.466 154.912 312.889 154.013 312.889C153.113 312.889 152.664 312.466 152.664 311.595V309.059C152.664 308.478 152.849 307.976 153.219 307.633C153.59 307.263 154.092 307.078 154.701 307.078H164.146V304.886H164.305C164.252 304.86 164.173 304.807 164.041 304.727C163.908 304.648 163.802 304.595 163.723 304.543C163.485 304.437 163.458 304.278 163.697 304.12C164.067 303.829 164.411 303.512 164.755 303.169H160.098L160.68 304.305C161.024 305.071 160.76 305.599 159.913 305.837C159.014 306.075 158.431 305.837 158.167 305.097C157.849 304.384 157.505 303.75 157.188 303.169H156.209C155.733 303.856 155.151 304.595 154.463 305.361C153.907 305.942 153.299 305.995 152.637 305.573C152.161 305.256 151.923 304.939 151.896 304.648C151.87 304.331 152.081 303.988 152.478 303.592C153.431 302.588 154.357 301.267 155.23 299.683C155.574 298.917 156.156 298.626 156.976 298.811C157.955 299.049 158.246 299.63 157.823 300.528L157.638 300.871H164.041C164.781 300.871 165.178 301.215 165.178 301.928V302.033C165.178 302.482 165.337 302.562 165.654 302.218C166.369 301.452 166.951 300.581 167.427 299.63C167.798 298.837 168.406 298.547 169.253 298.758C170.258 298.996 170.523 299.577 170.047 300.501C169.994 300.633 169.967 300.739 169.888 300.818H178.487C179.28 300.818 179.677 301.215 179.677 301.981C179.677 302.72 179.28 303.116 178.487 303.116H173.645C173.751 303.248 173.883 303.46 174.095 303.697C174.28 303.961 174.412 304.12 174.439 304.173C174.915 305.018 174.677 305.573 173.698 305.837C172.851 306.075 172.269 305.863 171.925 305.176C171.713 304.727 171.211 304.041 170.496 303.09H168.3C167.851 303.671 167.374 304.252 166.845 304.78H166.898V306.973H176.82C177.428 306.973 177.931 307.157 178.301 307.527C178.672 307.897 178.857 308.372 178.857 308.954V311.41C178.857 312.334 178.381 312.783 177.455 312.783C176.502 312.783 176.053 312.334 176.053 311.41V309.931C176.079 309.561 175.814 309.323 175.312 309.323ZM159.305 310.882H172.19C172.798 310.882 173.301 311.067 173.671 311.436C174.042 311.806 174.227 312.282 174.227 312.863V315.266C174.227 315.847 174.042 316.349 173.671 316.693C173.301 317.062 172.798 317.247 172.19 317.247H160.019V318.991H174.359C174.968 318.991 175.47 319.175 175.814 319.519C176.185 319.889 176.37 320.364 176.37 320.945V323.718C176.37 324.326 176.185 324.775 175.814 325.145C175.444 325.488 174.968 325.673 174.359 325.673H159.305C158.696 325.673 158.193 325.488 157.849 325.145C157.479 324.801 157.294 324.326 157.294 323.718V312.863C157.294 312.255 157.479 311.78 157.849 311.436C158.193 311.067 158.696 310.882 159.305 310.882ZM160.019 315.161H170.602C171.105 315.161 171.343 314.923 171.343 314.421V313.734C171.343 313.232 171.105 312.995 170.602 312.995H160.76C160.283 312.995 160.019 313.232 160.019 313.734V315.161ZM160.733 323.534H172.692C173.195 323.534 173.46 323.296 173.46 322.82V321.87C173.46 321.394 173.195 321.156 172.692 321.156H159.992V322.82C160.019 323.296 160.257 323.534 160.733 323.534Z" fill="#DF5948"/>
<path d="M187.377 300.633H194.547C195.446 300.633 195.896 301.082 195.896 301.928C195.896 302.799 195.446 303.222 194.547 303.222H192.43V309.271H194.044C194.944 309.271 195.393 309.72 195.393 310.565C195.393 311.436 194.944 311.885 194.044 311.885H192.43V318.779C192.615 318.726 192.906 318.621 193.33 318.489C193.727 318.357 194.044 318.277 194.203 318.198C195.182 317.881 195.764 318.225 195.949 319.202C196.081 319.968 195.764 320.496 194.97 320.76C192.589 321.579 190.181 322.398 187.747 323.164C186.821 323.428 186.239 323.085 186.027 322.054C185.921 321.579 185.948 321.209 186.08 320.945C186.212 320.681 186.503 320.496 186.98 320.364C187.747 320.153 188.647 319.889 189.678 319.572V311.859H187.668C186.768 311.859 186.318 311.41 186.318 310.538C186.318 309.667 186.768 309.244 187.668 309.244H189.678V303.222H187.377C186.477 303.222 186.027 302.799 186.027 301.928C186.027 301.056 186.477 300.633 187.377 300.633ZM213.173 325.647H196.002C195.129 325.647 194.679 325.224 194.679 324.379C194.679 323.507 195.129 323.085 196.002 323.085H203.675V319.466H198.251C197.378 319.466 196.928 319.043 196.928 318.198C196.928 317.353 197.378 316.93 198.251 316.93H203.675V313.814H199.23C198.621 313.814 198.119 313.629 197.775 313.259C197.404 312.889 197.219 312.414 197.219 311.833V302.139C197.219 301.532 197.404 301.056 197.775 300.686C198.145 300.317 198.621 300.132 199.23 300.132H211.03C211.639 300.132 212.141 300.317 212.512 300.686C212.882 301.056 213.067 301.532 213.067 302.139V311.833C213.067 312.44 212.882 312.916 212.512 313.259C212.141 313.629 211.639 313.814 211.03 313.814H206.585V316.93H212.141C213.015 316.93 213.464 317.353 213.464 318.198C213.464 319.043 213.015 319.466 212.141 319.466H206.585V323.085H213.12C213.993 323.085 214.443 323.534 214.443 324.379C214.47 325.198 214.046 325.647 213.173 325.647ZM203.913 302.482H200.579C200.103 302.482 199.838 302.72 199.838 303.196V305.758H203.913V302.482ZM203.913 308.003H199.838V310.618C199.838 311.119 200.076 311.357 200.579 311.357H203.913V308.003ZM206.374 305.758H210.342V303.196C210.342 302.72 210.078 302.482 209.575 302.482H206.374V305.758ZM206.374 311.357H209.575C210.078 311.357 210.342 311.119 210.342 310.618V308.003H206.374V311.357Z" fill="#DF5948"/>
<path d="M17.4626 249.102H34.4752C36.5653 249.102 37.5972 250 37.5972 251.822C37.5972 253.645 36.5653 254.543 34.4752 254.543H21.7488V263.127H32.1204C34.237 263.127 35.2954 264.025 35.2954 265.847C35.2954 267.696 34.237 268.621 32.1204 268.621H21.7488V278.631C21.7488 280.824 20.4788 281.933 17.9124 281.933C15.3459 281.933 14.0759 280.824 14.0759 278.631V252.007C14.0759 251.135 14.3934 250.449 15.002 249.894C15.6634 249.366 16.4572 249.102 17.4626 249.102Z" fill="#DF5948"/>
<path d="M71.4636 260.301V279.265C71.4636 281.035 70.3788 281.907 68.2357 281.907C66.2513 281.907 65.1401 281.114 64.902 279.529L64.6903 278.367H64.4786C61.7534 281.141 58.6843 282.541 55.2712 282.541C49.371 282.541 46.4077 279.239 46.4077 272.609V260.301C46.4077 258.161 47.6777 257.105 50.2441 257.105C52.7312 257.105 53.9747 258.161 53.9747 260.301V271.79C53.9747 273.666 54.2922 274.986 54.9272 275.779C55.5622 276.545 56.5941 276.941 57.9964 276.941C59.1605 276.941 60.1924 276.703 61.0655 276.254C61.9386 275.805 62.8647 274.986 63.8965 273.877V260.327C63.8965 258.188 65.1665 257.131 67.733 257.131C70.22 257.105 71.4636 258.161 71.4636 260.301Z" fill="#DF5948"/>
<path d="M86.6242 249.102H103.637C105.727 249.102 106.759 250 106.759 251.822C106.759 253.645 105.727 254.543 103.637 254.543H90.9104V263.127H101.282C103.399 263.127 104.457 264.025 104.457 265.847C104.457 267.696 103.399 268.621 101.282 268.621H90.9104V278.631C90.9104 280.824 89.6404 281.933 87.074 281.933C84.534 281.933 83.2375 280.824 83.2375 278.631V252.007C83.2375 251.135 83.555 250.449 84.1636 249.894C84.825 249.366 85.6188 249.102 86.6242 249.102Z" fill="#DF5948"/>
<path d="M127.978 256.444C132.026 256.444 135.36 257.686 137.953 260.169C140.546 262.651 141.816 265.768 141.816 269.519C141.816 273.454 140.466 276.598 137.741 278.975C135.016 281.352 131.762 282.54 127.978 282.54C124.195 282.54 120.914 281.352 118.189 278.975C115.463 276.598 114.088 273.454 114.088 269.519C114.088 265.557 115.463 262.387 118.189 260.01C120.94 257.659 124.195 256.444 127.978 256.444ZM127.978 261.78C125.888 261.78 124.353 262.519 123.348 263.972C122.343 265.425 121.84 267.274 121.84 269.545C121.84 271.922 122.369 273.798 123.454 275.145C124.539 276.518 126.047 277.205 127.978 277.205C129.936 277.205 131.418 276.518 132.476 275.145C133.534 273.771 134.064 271.896 134.064 269.545C134.064 267.142 133.534 265.266 132.476 263.866C131.444 262.467 129.936 261.78 127.978 261.78Z" fill="#DF5948"/>
<path d="M163.353 256.444C167.401 256.444 170.734 257.686 173.327 260.169C175.92 262.651 177.19 265.768 177.19 269.519C177.19 273.454 175.841 276.598 173.116 278.975C170.391 281.352 167.136 282.54 163.353 282.54C159.569 282.54 156.288 281.352 153.563 278.975C150.838 276.598 149.462 273.454 149.462 269.519C149.462 265.557 150.838 262.387 153.563 260.01C156.288 257.659 159.543 256.444 163.353 256.444ZM163.353 261.78C161.262 261.78 159.728 262.519 158.723 263.972C157.717 265.425 157.214 267.274 157.214 269.545C157.214 271.922 157.744 273.798 158.828 275.145C159.913 276.518 161.421 277.205 163.353 277.205C165.311 277.205 166.792 276.518 167.851 275.145C168.909 273.771 169.438 271.896 169.438 269.545C169.438 267.142 168.909 265.266 167.851 263.866C166.792 262.467 165.284 261.78 163.353 261.78Z" fill="#DF5948"/>
<path d="M211.692 249.788V279.345C211.692 280.19 211.401 280.824 210.819 281.273C210.237 281.722 209.416 281.933 208.384 281.933C206.479 281.933 205.342 281.193 205.024 279.714L204.918 279.371H204.76C202.246 281.484 199.6 282.541 196.796 282.541C193.197 282.541 190.34 281.378 188.197 279.054C186.054 276.73 184.969 273.56 184.969 269.545C184.969 265.636 186.16 262.493 188.567 260.089C190.975 257.686 193.806 256.471 197.087 256.471C198.595 256.471 199.918 256.709 201.003 257.131C202.114 257.58 203.225 258.267 204.363 259.191L204.072 255.282V249.788C204.072 247.622 205.342 246.54 207.908 246.54C210.448 246.54 211.692 247.622 211.692 249.788ZM204.098 274.617V263.708C202.511 262.467 200.738 261.859 198.754 261.859C197.034 261.859 195.605 262.519 194.467 263.866C193.33 265.214 192.748 267.089 192.748 269.466C192.748 274.617 194.732 277.179 198.727 277.179C200.791 277.152 202.59 276.307 204.098 274.617Z" fill="#DF5948"/>
</svg>
