<svg width="370" height="370" viewBox="0 0 370 370" fill="none" xmlns="http://www.w3.org/2000/svg">
<path d="M283.33 201.142C270.539 201.142 260.14 211.54 260.14 224.332C260.14 266.275 223.81 300.386 179.126 300.386C134.443 300.386 98.1127 266.275 98.1127 224.332C98.1127 211.54 87.7141 201.142 74.9224 201.142C62.1308 201.142 51.7322 211.54 51.7322 224.332C51.7322 291.858 108.903 346.766 179.17 346.766C249.437 346.766 306.608 291.858 306.608 224.332C306.564 211.497 296.165 201.142 283.33 201.142Z" fill="#DF5948"/>
<path d="M84.8425 158.068C87.366 147.539 96.6334 139.707 107.859 139.359H137.706C150.497 139.359 160.896 128.96 160.896 116.169C160.896 103.377 150.497 92.9786 137.706 92.9786H85.147C85.8432 79.3603 98.5913 68.4396 114.255 68.4396H137.706C150.497 68.4396 160.896 58.0409 160.896 45.2493C160.896 32.4577 150.497 22.059 137.706 22.059H114.255C72.573 22.059 38.636 54.3862 38.636 94.1533V156.458C38.636 169.25 49.0346 179.648 61.8263 179.648C74.0523 179.605 83.9723 170.076 84.8425 158.068Z" fill="#DF5948"/>
<path d="M308.174 97.0684H255.658C256.355 83.4501 269.103 72.5294 284.766 72.5294H308.217C321.009 72.5294 331.408 62.1308 331.408 49.3391C331.408 36.5475 321.009 26.1489 308.217 26.1489H284.766C243.084 26.1489 209.147 58.476 209.147 98.2432V160.548C209.147 173.34 219.546 183.738 232.338 183.738C245.129 183.738 255.528 173.34 255.528 160.548V159.808C258.791 150.497 267.449 143.797 277.805 143.492H308.217C321.009 143.492 331.408 133.094 331.408 120.302C331.408 107.467 321.009 97.0684 308.174 97.0684Z" fill="#DF5948"/>
</svg>
